<svg xmlns="http://www.w3.org/2000/svg" xmlns:xlink="http://www.w3.org/1999/xlink" style="display:none">
  <symbol id="icon-hub" viewBox="0 0 24 24">
    <circle cx="12" cy="12" r="4.5" fill="currentColor"/>
    <circle cx="5.5" cy="6" r="2" fill="currentColor" opacity="0.6"/>
    <circle cx="18.5" cy="7" r="1.5" fill="currentColor" opacity="0.5"/>
    <circle cx="6" cy="18" r="1.8" fill="currentColor" opacity="0.45"/>
    <circle cx="18" cy="17.5" r="1.3" fill="currentColor" opacity="0.4"/>
  </symbol>
  <symbol id="icon-fluid" viewBox="0 0 24 24">
    <circle cx="8" cy="10" r="5" fill="currentColor" opacity="0.35"/>
    <circle cx="16" cy="10" r="5" fill="currentColor" opacity="0.35"/>
    <circle cx="12" cy="15" r="5" fill="currentColor" opacity="0.35"/>
  </symbol>
  <symbol id="icon-ink" viewBox="0 0 24 24">
    <path d="M4 19 C7 8, 10 16, 12 12 C14 8, 17 16, 20 5" stroke="currentColor" fill="none" stroke-width="2.5" stroke-linecap="round"/>
  </symbol>
  <symbol id="icon-zen" viewBox="0 0 24 24">
    <circle cx="8" cy="9" r="1.5" fill="currentColor"/>
    <circle cx="16" cy="9" r="1.5" fill="currentColor"/>
    <circle cx="12" cy="15" r="1.5" fill="currentColor"/>
    <circle cx="12" cy="11" r="6" fill="none" stroke="currentColor" stroke-width="0.8" opacity="0.3"/>
  </symbol>
  <symbol id="icon-sumi" viewBox="0 0 24 24">
    <path d="M3 12 C6 8, 9 15, 12 11 C15 7, 18 15, 21 12" stroke="currentColor" fill="none" stroke-width="3.5" stroke-linecap="round" opacity="0.75"/>
    <path d="M3 12 C6 8, 9 15, 12 11 C15 7, 18 15, 21 12" stroke="currentColor" fill="none" stroke-width="1.5" stroke-linecap="round" stroke-dasharray="2 3" opacity="0.35"/>
  </symbol>
  <symbol id="icon-bleed" viewBox="0 0 24 24">
    <circle cx="9" cy="12" r="5" fill="currentColor" opacity="0.35"/>
    <circle cx="15" cy="12" r="5" fill="currentColor" opacity="0.35"/>
    <circle cx="12" cy="12" r="3" fill="currentColor" opacity="0.55"/>
  </symbol>
  <symbol id="icon-splatter" viewBox="0 0 24 24">
    <circle cx="12" cy="12" r="3" fill="currentColor"/>
    <circle cx="5" cy="5" r="1.2" fill="currentColor" opacity="0.7"/>
    <circle cx="19" cy="4" r="1" fill="currentColor" opacity="0.6"/>
    <circle cx="4" cy="15" r="1.1" fill="currentColor" opacity="0.5"/>
    <circle cx="20" cy="15" r="0.9" fill="currentColor" opacity="0.55"/>
    <circle cx="7" cy="20" r="1" fill="currentColor" opacity="0.45"/>
    <circle cx="17" cy="20" r="1.3" fill="currentColor" opacity="0.5"/>
  </symbol>
  <symbol id="icon-gradient" viewBox="0 0 24 24">
    <circle cx="12" cy="12" r="10" fill="currentColor" opacity="0.06"/>
    <circle cx="12" cy="12" r="8" fill="currentColor" opacity="0.12"/>
    <circle cx="12" cy="12" r="6" fill="currentColor" opacity="0.2"/>
    <circle cx="12" cy="12" r="4" fill="currentColor" opacity="0.35"/>
    <circle cx="12" cy="12" r="2" fill="currentColor" opacity="0.6"/>
  </symbol>
  <symbol id="icon-gallery" viewBox="0 0 24 24">
    <rect x="3" y="5" width="18" height="14" rx="1.5" fill="none" stroke="currentColor" stroke-width="1.5"/>
    <circle cx="12" cy="12" r="3" fill="currentColor" opacity="0.5"/>
  </symbol>
</svg>